<?xml version="1.0" encoding="UTF-8"?>
<!DOCTYPE svg PUBLIC "-//W3C//DTD SVG 1.1//EN" "http://www.w3.org/Graphics/SVG/1.1/DTD/svg11.dtd">
<!-- Creator: CorelDRAW X7 -->
<svg xmlns="http://www.w3.org/2000/svg" xml:space="preserve" width="35433px" height="21260px" version="1.1" style="shape-rendering:geometricPrecision; text-rendering:geometricPrecision; image-rendering:optimizeQuality; fill-rule:evenodd; clip-rule:evenodd"
viewBox="0 0 35433 21260"
 xmlns:xlink="http://www.w3.org/1999/xlink">
 <defs>
  <style type="text/css">
   <![CDATA[
    .str1 {stroke:#30322F;stroke-width:590.55}
    .str2 {stroke:#6B6E77;stroke-width:47.244}
    .str0 {stroke:#30322F;stroke-width:708.66}
    .fil3 {fill:none}
    .fil4 {fill:#30322F}
    .fil1 {fill:#BA1414}
    .fil2 {fill:#D42626}
    .fil0 {fill:#7A1212;fill-rule:nonzero}
   ]]>
  </style>
 </defs>
 <g id="Layer_x0020_1">
  <metadata id="CorelCorpID_0Corel-Layer"/>
  <path class="fil0" d="M14560 11749l-8697 8 4288 -7326 4409 7318zm-4348 4m-2205 -3659m4349 -4"/>
  <ellipse class="fil1" cx="12695" cy="8988" rx="2670" ry="2586"/>
  <rect class="fil2" transform="matrix(21.1138 -12.4729 12.4729 21.1138 4799.42 10628.1)" width="462.499" height="74.9998"/>
  <line class="fil3 str0" x1="453" y1="4003" x2="2862" y2= "4003" />
  <polyline class="fil3 str0" points="2527,3770 5614,11937 4070,13104 4108,14384 16265,14384 "/>
  <polyline class="fil3 str0" points="5614,11937 14270,11937 16152,5802 5614,5802 "/>
  <line class="fil3 str1" x1="15548" y1="7771" x2="7157" y2= "7760" />
  <line class="fil3 str1" x1="14937" y1="9763" x2="8474" y2= "9754" />
  <ellipse class="fil4 str2" cx="6309" cy="16102" rx="893" ry="794"/>
  <ellipse class="fil4 str2" cx="13747" cy="16102" rx="893" ry="794"/>
  <path class="fil1" d="M19787 12605c98,-80 200,-306 306,-679 276,-968 413,-1906 413,-2812 0,-470 -35,-941 -106,-1412 -89,-382 -249,-573 -480,-573 -151,0 -311,271 -480,813 -106,329 -186,657 -239,986 -63,391 -94,671 -94,839 0,1555 227,2501 680,2838zm-40 1000c-169,0 -329,-10 -480,-27 -417,-36 -759,-284 -1026,-746 -444,-666 -666,-1590 -666,-2772 0,-559 80,-1136 240,-1732 177,-675 391,-1194 639,-1558 267,-391 698,-587 1293,-587 293,0 635,160 1026,480 168,151 315,311 439,480 249,452 373,1257 373,2411 0,267 -13,533 -40,799 -133,1333 -417,2257 -852,2772 -276,320 -591,480 -946,480zm3517 -480c-177,0 -306,-80 -386,-240 -62,-115 -120,-360 -173,-733 -98,-959 -147,-2052 -147,-3277 0,-1235 35,-2074 107,-2518 44,-249 195,-374 452,-374 445,36 667,311 667,827l-40 1012c9,1190 40,1874 93,2052 142,-151 293,-435 453,-853 133,-346 253,-595 360,-746 89,-115 217,-173 386,-173 169,0 307,40 413,120 107,80 160,173 160,280 0,275 -351,1030 -1053,2265 -62,97 -93,164 -93,200 0,44 36,93 107,146 879,666 1328,1155 1345,1466 0,239 -199,359 -599,359 -258,0 -515,-160 -773,-479 -204,-249 -395,-404 -573,-467 -44,134 -66,267 -66,400 -27,266 -71,440 -133,520 -107,142 -276,213 -507,213zm3251 2438c-160,0 -289,-49 -386,-147 -45,-62 -67,-119 -67,-173 0,-71 80,-186 240,-346 115,-98 189,-178 220,-240 31,-62 46,-231 46,-506l0 -227c-44,-906 -71,-1585 -79,-2038 -18,-498 -40,-991 -67,-1479 -18,-267 -27,-533 -27,-799 9,-205 14,-416 14,-633 0,-218 35,-371 106,-460 71,-89 191,-133 360,-133 320,0 533,137 640,413 88,239 133,555 133,946 124,2016 186,3317 186,3904 0,497 -55,872 -167,1125 -110,253 -312,460 -606,620 -195,115 -377,173 -546,173zm453 -8221l-80 0c-222,0 -386,-115 -493,-346 -89,-160 -133,-333 -133,-519l0 -94c0,-186 98,-297 293,-333l187 27c204,44 359,160 466,346 71,142 107,293 107,453 0,293 -116,449 -347,466zm2785 4864c44,0 93,-10 146,-27 311,-80 467,-249 467,-507 -9,-266 -71,-399 -187,-399 -53,0 -120,40 -200,120 -106,106 -191,228 -253,366 -62,138 -93,242 -93,313 0,89 40,134 120,134zm1519 919c-258,0 -449,-62 -573,-187 -54,-62 -116,-93 -187,-93 -133,0 -302,40 -506,120 -240,98 -475,146 -706,146 -409,0 -675,-190 -800,-572 -35,-231 -53,-383 -53,-453 0,-338 102,-649 307,-933 293,-426 692,-640 1199,-640l253 14c80,0 133,-31 160,-94 44,-133 75,-390 93,-772 -18,-222 -67,-351 -147,-387 -151,0 -311,120 -479,360 -169,240 -329,360 -480,360 -98,0 -213,-40 -346,-120 -196,-133 -293,-289 -293,-466 0,-134 57,-289 173,-467 355,-408 786,-613 1292,-613 835,0 1346,498 1532,1493 71,390 107,870 107,1439l0 506c18,142 27,355 27,639 0,480 -192,720 -573,720zm2225 -187c-204,0 -364,-88 -480,-266 -44,-80 -75,-245 -93,-493 -53,-533 -80,-1061 -80,-1586 -71,-1137 -107,-2003 -107,-2598 0,-266 14,-470 40,-613 27,-142 78,-242 153,-299 76,-58 158,-87 247,-87 249,0 449,85 600,253 106,125 160,573 160,1346 0,364 22,1212 66,2545 36,462 53,830 53,1106 -17,461 -204,692 -559,692zm-120 1239c-204,0 -351,-71 -440,-213 -35,-53 -53,-111 -53,-173 0,-124 58,-236 173,-333 160,-124 324,-187 493,-187l120 0c160,0 267,116 320,347 -63,373 -267,559 -613,559z"/>
 </g>
</svg>
